# xmcd
#
# Track frame offsets:
#	150
#	21657
#	41177
#	57167
#	71791
#	85498
#	104177
#	120098
#
# Disc length: 1851 seconds
#
# Revision: 0
# Processed by: cddbd v1.5.2PL0 Copyright (c) Steve Scherf et al.
# Submitted via: dBpowerAMP V4.0
#
DISCID=75073908
DTITLE=Promo - Boombox Op Duizend
DYEAR=2009
DGENRE=Hardcore/HipHop
TTITLE0=Future Shock
TTITLE1=Boombox Op Duizend (ft. Flinke Namen)
TTITLE2=Pille In Je Bek (ft. Willy)
TTITLE3=I Saw The Future
TTITLE4=Straight Outta Beemster (ft. Willy)
TTITLE5=Iemand Anders (ft. Sef)
TTITLE6=Cockknocker (ft. Aux Raus)
TTITLE7=Hakkemdoordemidde (Promo Remix)
EXTD=
EXTT0=
EXTT1=
EXTT2=
EXTT3=
EXTT4=
EXTT5=
EXTT6=
EXTT7=
PLAYORDER=
